<svg xmlns="http://www.w3.org/2000/svg" xmlns:xlink="http://www.w3.org/1999/xlink" width="28px" height="28px">
    <path fill-rule="evenodd"  opacity="0.302" fill="rgb(0, 0, 0)" d="M23.873,23.873 C18.412,29.334 9.557,29.334 4.096,23.873 C-1.365,18.412 -1.365,9.557 4.096,4.096 C9.557,-1.365 18.412,-1.365 23.873,4.096 C29.334,9.557 29.334,18.412 23.873,23.873 ZM22.460,5.509 C17.779,0.827 10.190,0.827 5.509,5.509 C0.827,10.189 0.827,17.779 5.509,22.460 C10.190,27.141 17.779,27.141 22.460,22.460 C27.141,17.779 27.141,10.189 22.460,5.509 ZM17.516,18.929 L13.984,15.397 L10.453,18.929 L9.040,17.516 L12.572,13.984 L9.040,10.453 L10.453,9.040 L13.984,12.572 L17.516,9.040 L18.929,10.453 L15.397,13.984 L18.929,17.516 L17.516,18.929 Z"/>
</svg>