<svg xmlns="http://www.w3.org/2000/svg" xmlns:xlink="http://www.w3.org/1999/xlink" width="28px" height="28px">
 <path fill-rule="evenodd" fill="rgb(0, 204, 153)" d="M14.000,28.000 C6.268,28.000 0.000,21.732 0.000,14.000 C0.000,6.268 6.268,-0.000 14.000,-0.000 C21.732,-0.000 28.000,6.268 28.000,14.000 C28.000,21.732 21.732,28.000 14.000,28.000 ZM14.000,2.000 C7.373,2.000 2.000,7.373 2.000,14.000 C2.000,20.627 7.373,26.000 14.000,26.000 C20.627,26.000 26.000,20.627 26.000,14.000 C26.000,7.373 20.627,2.000 14.000,2.000 ZM15.000,20.000 L13.000,20.000 L13.000,15.000 L8.000,15.000 L8.000,13.000 L13.000,13.000 L13.000,8.000 L15.000,8.000 L15.000,13.000 L20.000,13.000 L20.000,15.000 L15.000,15.000 L15.000,20.000 Z"/>
</svg>