<svg xmlns="http://www.w3.org/2000/svg" xmlns:xlink="http://www.w3.org/1999/xlink" width="29px" height="29px">
    <path fill-rule="evenodd"  fill="rgb(0, 204, 153)" d="M23.900,23.899 C18.432,29.367 9.568,29.367 4.101,23.899 C-1.367,18.432 -1.367,9.568 4.101,4.100 C9.568,-1.367 18.432,-1.367 23.899,4.101 C29.367,9.568 29.367,18.432 23.900,23.899 ZM22.485,5.515 C17.799,0.829 10.201,0.828 5.515,5.515 C0.828,10.201 0.829,17.799 5.515,22.485 C10.201,27.171 17.799,27.172 22.485,22.485 C27.172,17.799 27.171,10.201 22.485,5.515 ZM18.950,17.535 L17.536,18.950 L14.000,15.414 L10.465,18.950 L9.050,17.535 L12.586,14.000 L9.050,10.464 L10.465,9.050 L14.000,12.586 L17.536,9.050 L18.950,10.464 L15.414,14.000 L18.950,17.535 Z"/>
</svg>