<svg xmlns="http://www.w3.org/2000/svg" viewBox="0 0 176.31 63.34"><defs><style>.cls-1{fill:#d3d3d3;}</style></defs><title>Asset 1</title><g id="Layer_2" data-name="Layer 2"><g id="Layer_1-2" data-name="Layer 1"><path class="cls-1" d="M19,13.11a4.87,4.87,0,0,0,1.67-2.75H21a9.37,9.37,0,0,0,1-.06,12.21,12.21,0,0,0,.12,1.28,9.65,9.65,0,0,0,1,3.19l-.09.06a4,4,0,0,1-3.11,1A4.19,4.19,0,0,1,18,15.08l-.36.46L17.3,16a5.29,5.29,0,0,0,2.55,1,4.64,4.64,0,0,0,.63,0,5.15,5.15,0,0,0,3.28-1.22h0c.2.29.4.55.59.78a3.89,3.89,0,0,0,.71.69l.68-.94a3.76,3.76,0,0,1-.53-.53,8.7,8.7,0,0,1-1.94-4.36,8.17,8.17,0,0,1,1.51-6.34,10.73,10.73,0,0,0,.82-1.46A8.06,8.06,0,0,0,26,0L24.83.11a6.72,6.72,0,0,1-.29,3.06,10.07,10.07,0,0,1-.74,1.29l-.43.7a2.43,2.43,0,0,1-.67-1.53A2.06,2.06,0,0,0,22.19,2a2.52,2.52,0,0,0-1.72-.75l0,1.17a1.41,1.41,0,0,1,.89.36.93.93,0,0,1,.21.76,3.89,3.89,0,0,0,1.24,2.72A8.53,8.53,0,0,0,22,9.13c-1.12.17-3,0-3.2-.63A2.5,2.5,0,0,0,16.1,6.66l.17,1.15a1.34,1.34,0,0,1,1.45,1,2.24,2.24,0,0,0,1.82,1.37,3.57,3.57,0,0,1-1.16,1.94,2.51,2.51,0,0,1-2.31.41l-.23,1.15a5.64,5.64,0,0,0,1.08.12A3.54,3.54,0,0,0,19,13.11Z"/><path class="cls-1" d="M30.36,5.08a8.17,8.17,0,0,1,1.51,6.34,8.68,8.68,0,0,1-2,4.39,3.29,3.29,0,0,1-.5.5l.68.94a3.79,3.79,0,0,0,.73-.72,7,7,0,0,0,.57-.75h0A5.15,5.15,0,0,0,34.67,17a4.64,4.64,0,0,0,.63,0,5.29,5.29,0,0,0,2.55-1l-.72-.92a4.19,4.19,0,0,1-2,.74,4,4,0,0,1-3.11-1L32,14.78a9.81,9.81,0,0,0,1-3.19,12.21,12.21,0,0,0,.12-1.28,9.37,9.37,0,0,0,1,.06h.32a4.87,4.87,0,0,0,1.67,2.75,3.54,3.54,0,0,0,2.12.72,5.64,5.64,0,0,0,1.08-.12l-.23-1.15a2.51,2.51,0,0,1-2.31-.41,3.57,3.57,0,0,1-1.16-1.94,2.24,2.24,0,0,0,1.82-1.37,1.32,1.32,0,0,1,1.45-1l.17-1.15A2.49,2.49,0,0,0,36.31,8.5c-.2.67-2.08.8-3.2.63a8.41,8.41,0,0,0-.75-2.89,3.78,3.78,0,0,0,1.21-2.69,1,1,0,0,1,.21-.75,1.36,1.36,0,0,1,.89-.37V1.26A2.54,2.54,0,0,0,32.92,2a2.1,2.1,0,0,0-.51,1.62,2.47,2.47,0,0,1-.64,1.51l-.42-.68a10.07,10.07,0,0,1-.74-1.29A6.71,6.71,0,0,1,30.32.11L29.16,0a8,8,0,0,0,.38,3.61A10.73,10.73,0,0,0,30.36,5.08Z"/><polygon class="cls-1" points="24.34 8.64 24.34 9.81 26.94 9.81 26.94 14.79 28.1 14.79 28.1 9.81 30.7 9.81 30.7 8.64 28.1 8.64 28.1 5.67 26.94 5.67 26.94 8.64 24.34 8.64"/><path class="cls-1" d="M26,33.67a1.45,1.45,0,1,0,1.44-1.45A1.45,1.45,0,0,0,26,33.67Zm2,0a.52.52,0,1,1-.52-.52A.51.51,0,0,1,28,33.67Z"/><path class="cls-1" d="M30.86,40.34h1.26V39.16h-6.7a1.06,1.06,0,0,0-1.1,1.17h3.33a.08.08,0,0,1,.07.08v.39a.07.07,0,0,1-.07.07H25.42v1.18h2.23A1.25,1.25,0,0,0,28.9,40.8v-.46a1.38,1.38,0,0,1,1.21,1.48v.78a1.49,1.49,0,0,1-1.47,1.48H25.53a2.65,2.65,0,1,0,0,5.3h4.18a1.48,1.48,0,0,1,1.48,1.48v.08a1.48,1.48,0,0,1-1.48,1.48H27.09a2.45,2.45,0,1,0,0,4.88h2.8V56.13h-2.8a1.29,1.29,0,1,1,0-2.54h2.62a2.65,2.65,0,0,0,2.65-2.65v-.08a2.65,2.65,0,0,0-2.65-2.65H25.53a1.48,1.48,0,1,1,0-3h6.61V44.08H30.82a2.65,2.65,0,0,0,.44-1.37h2.27V41.55H31.25A2.7,2.7,0,0,0,30.86,40.34Z"/><path class="cls-1" d="M24.28,42.05V40.88H23a1.87,1.87,0,0,0-2.08-.72,4.13,4.13,0,0,0-1.59,1l-.31.3.27.33a3.29,3.29,0,0,0,2.08,1h.09a1.92,1.92,0,0,0,1.51-.73Zm-2.87-.2a1.84,1.84,0,0,1-1.07-.37,2.45,2.45,0,0,1,.77-.42,1,1,0,0,1,1,.41A1.12,1.12,0,0,1,21.41,41.85Z"/><path class="cls-1" d="M22.64,21.82l.57,1a9.11,9.11,0,0,1,8.82,0l.6-1A10.27,10.27,0,0,0,22.64,21.82Z"/><path class="cls-1" d="M33.8,18.36a.59.59,0,0,0-.64-.8l-3.74.68L28.06,15.9a.56.56,0,0,0-.47-.28.6.6,0,0,0-.51.24l-1.66,2.38-3.29-.67a.58.58,0,0,0-.65.79l1.07,2.57,1.07-.44L23,18.92l2.6.53a.57.57,0,0,0,.59-.23l1.36-1.94,1.1,1.9a.6.6,0,0,0,.61.28l3.08-.56-.66,1.59,1.08.44Z"/><path class="cls-1" d="M53.9,27.19a6,6,0,0,0-4-2.67,5.11,5.11,0,0,0-1.65,0,3.52,3.52,0,0,0-.16-3.05,4,4,0,0,0-4-2.14c-2.45.22-3.26,2.51-3.91,4.36a8.77,8.77,0,0,1-1,2.27,1.77,1.77,0,0,1-1.63.51,2.18,2.18,0,0,1-1.41-.77,3,3,0,0,0,1.88-1.79,2.87,2.87,0,0,0-.29-3c.09-.84.35-1.78,1.19-1.76a2.11,2.11,0,0,1,1.08.53l.79-.86A3.22,3.22,0,0,0,39,18c-1.15,0-1.94.76-2.26,2.16A2.2,2.2,0,0,0,34,20.9a2.1,2.1,0,0,0,.14,2.28l.95-.68a1,1,0,0,1-.1-1,1.06,1.06,0,0,1,1.42-.27c.58.29,1,1,.57,2.19-.89,2.25-4.83.78-4.87.77a6.66,6.66,0,0,0-9.36.06c-.68.24-3.81,1.19-4.61-.83-.46-1.17,0-1.9.57-2.19a1.06,1.06,0,0,1,1.42.27,1,1,0,0,1-.09,1l.94.68a2.1,2.1,0,0,0,.14-2.28,2.2,2.2,0,0,0-2.72-.78c-.31-1.4-1.11-2.18-2.26-2.16a3.26,3.26,0,0,0-1.85.84l.79.86a2.1,2.1,0,0,1,1.09-.53c.81,0,1.09.92,1.18,1.76a2.89,2.89,0,0,0-.29,3,3,3,0,0,0,1.88,1.79,2.18,2.18,0,0,1-1.41.77,1.74,1.74,0,0,1-1.62-.51,8.76,8.76,0,0,1-1-2.27c-.65-1.85-1.46-4.14-3.91-4.36a4,4,0,0,0-4,2.14,3.56,3.56,0,0,0-.16,3.05,4.84,4.84,0,0,0-1.65,0,6,6,0,0,0-4,2.67,9.35,9.35,0,0,0-.87,7.23,7.41,7.41,0,0,0,3.33,4.83l.46.26a6.43,6.43,0,0,0-1.2,5.09,5.66,5.66,0,0,0,5.57,4.88,5.06,5.06,0,0,0,.68,0,4.76,4.76,0,0,0,1.59,4.83,3.73,3.73,0,0,0,2.36.83,4.08,4.08,0,0,0,1.68-.37,4.18,4.18,0,0,0,1-.61v.14c0,.32-.1,3.18.94,4.31s3.38,1.24,4.3,1.18a8.22,8.22,0,0,1,4,.57,6.09,6.09,0,0,1,1.9,2.1l.52.93.5-.93a6.05,6.05,0,0,1,1.91-2.1,8.17,8.17,0,0,1,4-.57c.92.06,3.18,0,4.31-1.18s1-4,.94-4.29v-.39a4,4,0,0,0,1.25.84,4.12,4.12,0,0,0,1.68.37,3.71,3.71,0,0,0,2.36-.83,4.76,4.76,0,0,0,1.59-4.83,5.06,5.06,0,0,0,.68,0,5.66,5.66,0,0,0,5.57-4.88A6.44,6.44,0,0,0,51,39.51l.46-.26a7.43,7.43,0,0,0,3.32-4.83A9.35,9.35,0,0,0,53.9,27.19ZM32.07,27A3.41,3.41,0,0,1,30,30a9.61,9.61,0,0,0,.47-3.94,6.33,6.33,0,0,0,1.33-.33A2.89,2.89,0,0,1,32.07,27Zm-1.69,6.1a5.91,5.91,0,0,0,1.9.76,5.8,5.8,0,0,1-4.89,2.5,6.06,6.06,0,0,1-4.86-2.51,6,6,0,0,0,1.86-.75,2.86,2.86,0,0,0,1.21-1.66,7.21,7.21,0,0,0,1.94.26,7.31,7.31,0,0,0,1.65-.19A2.87,2.87,0,0,0,30.38,33.12Zm-7.16-7.58a4.22,4.22,0,0,0,1.26.47,9.64,9.64,0,0,0,.45,4,3.44,3.44,0,0,1-2.15-3A2.78,2.78,0,0,1,23.22,25.54Zm6.07.67a8.11,8.11,0,0,1-.77,4.27l-.48.06V26.27C28.5,26.26,28.92,26.24,29.29,26.21Zm-2.41,4.31-.5-.07a8.21,8.21,0,0,1-.75-4.26c.37,0,.78.06,1.25.08Zm4.17-5.75a14.25,14.25,0,0,1-3.62.34A8.48,8.48,0,0,1,24,24.64a5.59,5.59,0,0,1,3.52-1.16A5.06,5.06,0,0,1,31.05,24.77ZM1.46,34.15a8.23,8.23,0,0,1,.72-6.33A4.89,4.89,0,0,1,5.4,25.66a3.06,3.06,0,0,1,3.32,1.27,2.37,2.37,0,0,1,.1,1.89,1.83,1.83,0,0,1-1,1,2.21,2.21,0,0,1-2.15-.28,1.73,1.73,0,0,1-.56-1.75l-1.15-.2a2.89,2.89,0,0,0,1,2.85A3.37,3.37,0,0,0,8.22,31a3,3,0,0,0,1.68-1.7,3.49,3.49,0,0,0-.06-2.67,2.79,2.79,0,0,0,2.08-.93l-.84-.8a1.69,1.69,0,0,1-1.3.57,2.14,2.14,0,0,1-1.44-.66A2.45,2.45,0,0,1,8,22a2.88,2.88,0,0,1,1.52-1.34,3.11,3.11,0,0,0,.89,2.58l.82-.82a2.06,2.06,0,0,1-.5-1.94h.09c1.71.15,2.3,1.82,2.93,3.59a16.68,16.68,0,0,0,.65,1.65A3.15,3.15,0,0,0,12.82,28a2,2,0,0,0,.83,1.95,2.27,2.27,0,0,0,1.23.37,1.5,1.5,0,0,0,.72-.17l-.56-1a.94.94,0,0,1-.76-.17.79.79,0,0,1-.3-.82,2,2,0,0,1,1-1.4,2.8,2.8,0,0,0,2.17.93l.48,0a3.29,3.29,0,0,0,2.49-1.73h.21a7.44,7.44,0,0,0,1.47-.16A3.88,3.88,0,0,0,21.62,27a4.6,4.6,0,0,0,2.86,4,1.47,1.47,0,0,1-.74,1.12,6,6,0,0,1-2.22.71h0l-.43,0h-.56a2,2,0,0,1-1.76-.84A1.25,1.25,0,0,1,19,30.68c.72-.8,2,.27,2,.31l.38-.43.39-.44c-.74-.65-2.46-1.54-3.64-.21a2.36,2.36,0,0,0-.44,2.7,2.86,2.86,0,0,0,.19.3H16.16a4.09,4.09,0,0,0-3.83-1.14,4.83,4.83,0,0,0-1.06.34,2.53,2.53,0,0,1-.84-.88l-1,.57a3.29,3.29,0,0,0,.79.95,4.83,4.83,0,0,0-1.87,3.42A3.81,3.81,0,0,0,9.4,39.39a9.24,9.24,0,0,1-4.49-.78,2.23,2.23,0,0,0,.4-.16A3,3,0,0,0,6.8,36.51l-1.12-.33a1.89,1.89,0,0,1-.89,1.23,2.23,2.23,0,0,1-1.52.05h0A6.59,6.59,0,0,1,1.46,34.15ZM6.57,47.86A2.2,2.2,0,0,1,7.39,45l-.55-1A3,3,0,0,0,5.2,46.81a4.92,4.92,0,0,1-1.13-2.42A5.24,5.24,0,0,1,5.22,40a10.66,10.66,0,0,0,3.53.58,11.79,11.79,0,0,0,2.64-.29,6.15,6.15,0,0,0,1.92-.84,2.62,2.62,0,0,0,.82-2.73,1.92,1.92,0,0,0-1-1.28,2.67,2.67,0,0,0-2,0l.42,1.09a1.55,1.55,0,0,1,1,0A.86.86,0,0,1,13,37a1.49,1.49,0,0,1-.49,1.54,1.66,1.66,0,0,1-1.7.38,2.37,2.37,0,0,1-1.34-2.67,3.78,3.78,0,0,1,3.06-3.36,2.91,2.91,0,0,1,3.25,1.43V41.2l0,0a1.62,1.62,0,0,1-2.52.45l-.65,1a3.19,3.19,0,0,0,1.8.61,2.47,2.47,0,0,0,.92-.18,11.88,11.88,0,0,1-.7,1.49,7,7,0,0,1-5.48,3.75A4.32,4.32,0,0,1,6.57,47.86Zm6.65,2.82a2,2,0,0,1,2,.07,1.34,1.34,0,0,1,.6,1.27,2.26,2.26,0,0,1-1.46,1.64,2.71,2.71,0,0,1-2.84-.31,3.72,3.72,0,0,1-1-4.18,8,8,0,0,0,5.21-4.11l.14-.27v5a3.19,3.19,0,0,0-3.09-.13Zm24,7.1c-.64.7-2.22.87-3.37.8a9.71,9.71,0,0,0-4.61.71,6.17,6.17,0,0,0-1.85,1.77,6.13,6.13,0,0,0-1.84-1.77A9.71,9.71,0,0,0,21,58.58c-1.15.07-2.73-.1-3.37-.8s-.68-2.45-.64-3.51V34.07h4.31a7.28,7.28,0,0,0,5.9,3.47h.43a6.89,6.89,0,0,0,5.92-3.47h4.36V54.29C37.92,55.33,37.79,57.19,37.25,57.78Zm6.36-4.43a2.7,2.7,0,0,1-2.84.31A2.26,2.26,0,0,1,39.31,52a1.34,1.34,0,0,1,.6-1.27,2,2,0,0,1,2-.07l.51-1a3.17,3.17,0,0,0-3.13.15l-.21.16V44.28c.12.25.24.51.39.78a8.1,8.1,0,0,0,5.21,4.11A3.74,3.74,0,0,1,43.61,53.35Zm7.42-9a4.92,4.92,0,0,1-1.13,2.42A3,3,0,0,0,48.27,44l-.56,1a2.2,2.2,0,0,1,.82,2.85,4.25,4.25,0,0,1-2.58.4,7,7,0,0,1-5.48-3.75,11.28,11.28,0,0,1-.7-1.51l.34.1a3,3,0,0,0,.6.06,3.19,3.19,0,0,0,1.79-.57l-.66-1a2,2,0,0,1-1.49.33,2.1,2.1,0,0,1-1.3-1V34.66h0a3.18,3.18,0,0,1,3.55-1.61,3.67,3.67,0,0,1,3,3.22A2.37,2.37,0,0,1,44.27,39a1.66,1.66,0,0,1-1.7-.38A1.47,1.47,0,0,1,42.09,37a.84.84,0,0,1,.4-.56,1.51,1.51,0,0,1,1,0L44,35.39a2.67,2.67,0,0,0-2,0,2,2,0,0,0-1,1.28,2.61,2.61,0,0,0,.83,2.73,6,6,0,0,0,1.91.84,11.85,11.85,0,0,0,2.64.29A10.66,10.66,0,0,0,49.88,40,5.24,5.24,0,0,1,51,44.39Zm2.61-10.24a6.63,6.63,0,0,1-1.8,3.33v0a2.22,2.22,0,0,1-1.52-.05,1.89,1.89,0,0,1-.89-1.23l-1.12.33a3,3,0,0,0,1.49,1.94,2.56,2.56,0,0,0,.4.16,9.22,9.22,0,0,1-4.49.78,3.78,3.78,0,0,0,1.07-3.22,4.61,4.61,0,0,0-1.93-3.37,3.26,3.26,0,0,0,.85-1l-1-.57a2.37,2.37,0,0,1-1,.95,4.19,4.19,0,0,0-.88-.26,4.41,4.41,0,0,0-3.86,1H37.18a1.81,1.81,0,0,0,.19-.3,2.37,2.37,0,0,0-.43-2.7c-1.19-1.33-2.91-.44-3.65.21l.77.87s1.29-1.11,2-.31a1.23,1.23,0,0,1,.27,1.39,2,2,0,0,1-1.75.84,9,9,0,0,1-1.34,0A5.77,5.77,0,0,1,31,32.16a1.66,1.66,0,0,1-.74-1A4.59,4.59,0,0,0,33.23,27,3.85,3.85,0,0,0,33,25.66a8.11,8.11,0,0,0,1.73.21h.22a3.26,3.26,0,0,0,2.48,1.73l.49,0a2.79,2.79,0,0,0,2.16-.93,2,2,0,0,1,1,1.4.79.79,0,0,1-.3.82.94.94,0,0,1-.76.17l-.56,1a1.53,1.53,0,0,0,.72.17,2.27,2.27,0,0,0,1.23-.37A2,2,0,0,0,42.28,28a3.13,3.13,0,0,0-1.6-2.26c.24-.51.45-1.07.66-1.65.62-1.77,1.21-3.44,2.92-3.59h.09a2.06,2.06,0,0,1-.5,1.94l.82.82a3.11,3.11,0,0,0,.89-2.58A2.88,2.88,0,0,1,47.08,22a2.43,2.43,0,0,1-.32,2.79,2.14,2.14,0,0,1-1.43.66,1.66,1.66,0,0,1-1.3-.57l-.85.8a2.81,2.81,0,0,0,2.09.93,3.49,3.49,0,0,0-.07,2.67A3,3,0,0,0,46.89,31a3.38,3.38,0,0,0,3.3-.47,2.87,2.87,0,0,0,1-2.85l-1.15.2a1.73,1.73,0,0,1-.56,1.75,2.19,2.19,0,0,1-2.14.28,1.82,1.82,0,0,1-1-1,2.41,2.41,0,0,1,.1-1.89,3.07,3.07,0,0,1,3.32-1.27,4.87,4.87,0,0,1,3.22,2.16A8.23,8.23,0,0,1,53.64,34.15Z"/><path class="cls-1" d="M70.82,53.14a5.85,5.85,0,0,1-1.44-.26,3.15,3.15,0,0,1-1.13-.61,2.7,2.7,0,0,1-.75-1,3.2,3.2,0,0,1-.27-1.38,3.5,3.5,0,0,1,.26-1.38,2.81,2.81,0,0,1,.73-1,3.2,3.2,0,0,1,1.13-.64,5.19,5.19,0,0,1,1.47-.28v-.89h1v.88a5.12,5.12,0,0,1,1.46.28,3.35,3.35,0,0,1,1.13.63,2.72,2.72,0,0,1,.74,1,3.5,3.5,0,0,1,.25,1.38,3.31,3.31,0,0,1-.27,1.39,2.73,2.73,0,0,1-.76,1,3.28,3.28,0,0,1-1.14.61,6.29,6.29,0,0,1-1.41.27v1h-1ZM68.3,49.88A2.21,2.21,0,0,0,69,51.65a3.28,3.28,0,0,0,1.87.66V47.44a2.83,2.83,0,0,0-1.92.72A2.39,2.39,0,0,0,68.3,49.88Zm6.06,0a2.35,2.35,0,0,0-.62-1.72,2.91,2.91,0,0,0-1.91-.72v4.87a3.2,3.2,0,0,0,1.89-.67A2.25,2.25,0,0,0,74.36,49.88Z"/><path class="cls-1" d="M80.3,53.35a2.88,2.88,0,0,1-.8.65,2.3,2.3,0,0,1-1.19.28,2.86,2.86,0,0,1-.8-.11,1.87,1.87,0,0,1-.63-.32,1.68,1.68,0,0,1-.41-.54,2,2,0,0,1-.14-.76,1.73,1.73,0,0,1,.25-1,1.79,1.79,0,0,1,.67-.61,3.41,3.41,0,0,1,1-.3,9.42,9.42,0,0,1,1.08-.1l1,0v-.23A1.48,1.48,0,0,0,80,49.22a1.36,1.36,0,0,0-1-.33,1.77,1.77,0,0,0-1,.23,1,1,0,0,0-.43.63l-.88-.1a1.61,1.61,0,0,1,.75-1.15A3,3,0,0,1,79,48.13a3.2,3.2,0,0,1,1,.15,1.81,1.81,0,0,1,.7.43,1.66,1.66,0,0,1,.39.7,3.26,3.26,0,0,1,.12.92v3.81H80.3Zm0-2.14-.92,0a5,5,0,0,0-1,.11,2,2,0,0,0-.62.24.91.91,0,0,0-.32.39,1.44,1.44,0,0,0-.1.54.9.9,0,0,0,.27.69,1.15,1.15,0,0,0,.86.26,2,2,0,0,0,1.34-.42,1.47,1.47,0,0,0,.48-1.16Z"/><path class="cls-1" d="M87.45,46.81l-1,.19a6.45,6.45,0,0,0-1.36.38,2.5,2.5,0,0,0-.75.5,2.93,2.93,0,0,0-.76,1.92,2.33,2.33,0,0,1,2.11-1.15,2.59,2.59,0,0,1,1,.18,2,2,0,0,1,.78.53,2.37,2.37,0,0,1,.51.86,3.61,3.61,0,0,1,.18,1.2,3.68,3.68,0,0,1-.18,1.17,2.51,2.51,0,0,1-.51.92,2.4,2.4,0,0,1-.85.61,3,3,0,0,1-1.17.21,3.06,3.06,0,0,1-1.31-.26,2.42,2.42,0,0,1-.87-.75,3.17,3.17,0,0,1-.48-1.12,6.22,6.22,0,0,1-.15-1.41,9.13,9.13,0,0,1,.07-1.24,4.75,4.75,0,0,1,.22-.95,3.21,3.21,0,0,1,.34-.72,3.7,3.7,0,0,1,.46-.57,3.14,3.14,0,0,1,1.13-.72,8.71,8.71,0,0,1,1.7-.45l.84-.14Zm-2,2.64a2,2,0,0,0-.64.1,1.72,1.72,0,0,0-.58.31,1.66,1.66,0,0,0-.45.63,1.94,1.94,0,0,0-.16.8,2.91,2.91,0,0,0,.41,1.63,1.49,1.49,0,0,0,1.33.61A1.47,1.47,0,0,0,86.65,53a2.44,2.44,0,0,0,.42-1.53C87.07,50.12,86.54,49.45,85.49,49.45Z"/><path class="cls-1" d="M89.4,48.3h1v.83a2.48,2.48,0,0,1,.84-.75,2.28,2.28,0,0,1,1.11-.26,2.6,2.6,0,0,1,1.08.22,2.23,2.23,0,0,1,.77.63,2.8,2.8,0,0,1,.45,1,4.87,4.87,0,0,1,0,2.55,2.75,2.75,0,0,1-.52,1,2.15,2.15,0,0,1-.81.62,2.42,2.42,0,0,1-1.06.22,2.54,2.54,0,0,1-1-.19,2.15,2.15,0,0,1-.86-.7v2.88h-1Zm1,3.08a3.47,3.47,0,0,0,.13,1,2,2,0,0,0,.35.66,1.27,1.27,0,0,0,.54.38,1.91,1.91,0,0,0,.68.12,1.85,1.85,0,0,0,.67-.12,1.38,1.38,0,0,0,.53-.41,2,2,0,0,0,.35-.72,4.09,4.09,0,0,0,.13-1.08,3.68,3.68,0,0,0-.14-1.08,2.19,2.19,0,0,0-.37-.7,1.19,1.19,0,0,0-.5-.37,1.51,1.51,0,0,0-.59-.11,2,2,0,0,0-.7.12,1.56,1.56,0,0,0-.57.37,1.74,1.74,0,0,0-.37.64,2.74,2.74,0,0,0-.14.9Z"/><path class="cls-1" d="M100.88,54.14H100v-4.4l-3,4.4h-.92V48.3H97v4.41l3-4.41h.93Z"/><path class="cls-1" d="M102.35,54.14V48.3h1v2.54h.39a1.4,1.4,0,0,0,.38-.05.8.8,0,0,0,.29-.15,1.09,1.09,0,0,0,.25-.27,4,4,0,0,0,.23-.43l.34-.69a3.45,3.45,0,0,1,.25-.44,1.59,1.59,0,0,1,.29-.29.94.94,0,0,1,.38-.17,2.41,2.41,0,0,1,.5-.05l.29,0a1.07,1.07,0,0,1,.21,0l-.1.75a.28.28,0,0,0-.13,0h-.23a.61.61,0,0,0-.43.13,1.26,1.26,0,0,0-.26.41l-.32.7a2,2,0,0,1-.31.51,1.32,1.32,0,0,1-.44.32,1.19,1.19,0,0,1,.41.26,2.62,2.62,0,0,1,.38.45l1.53,2.29h-1.12l-1.34-2a1.45,1.45,0,0,0-.4-.44.92.92,0,0,0-.57-.15h-.47v2.6Z"/><path class="cls-1" d="M111.64,53.35a2.88,2.88,0,0,1-.8.65,2.3,2.3,0,0,1-1.19.28,2.86,2.86,0,0,1-.8-.11,1.87,1.87,0,0,1-.63-.32,1.52,1.52,0,0,1-.4-.54,1.81,1.81,0,0,1-.15-.76,1.73,1.73,0,0,1,.25-1,1.79,1.79,0,0,1,.67-.61,3.41,3.41,0,0,1,1-.3,9.42,9.42,0,0,1,1.08-.1l1,0v-.23a1.48,1.48,0,0,0-.31-1.06,1.36,1.36,0,0,0-1-.33,1.77,1.77,0,0,0-1,.23,1,1,0,0,0-.43.63l-.88-.1a1.61,1.61,0,0,1,.75-1.15,3,3,0,0,1,1.61-.37,3.15,3.15,0,0,1,1.05.15,1.81,1.81,0,0,1,.7.43,1.66,1.66,0,0,1,.39.7,3.26,3.26,0,0,1,.12.92v3.81h-.94Zm0-2.14-.92,0a5,5,0,0,0-1,.11,2,2,0,0,0-.62.24.91.91,0,0,0-.32.39,1.44,1.44,0,0,0-.1.54.9.9,0,0,0,.27.69,1.15,1.15,0,0,0,.86.26,2,2,0,0,0,1.34-.42,1.47,1.47,0,0,0,.48-1.16Z"/><path class="cls-1" d="M68.65,30.49a6.63,6.63,0,0,0,.84-1.59A15,15,0,0,0,70.07,27c.16-.64.29-1.26.38-1.87s.16-1.12.2-1.55L70.91,21h7v9.52h1.33v4.9H77.12V32.57H69.46v2.82H67.35v-4.9Zm4.19-6c0,.4-.09.86-.16,1.38a16.13,16.13,0,0,1-.28,1.59c-.13.55-.28,1.1-.46,1.63a6.38,6.38,0,0,1-.67,1.44h4.24V23H73Z"/><path class="cls-1" d="M84.4,32.83a4.11,4.11,0,0,1-3.18-1.19,4.81,4.81,0,0,1-1.11-3.39,5.47,5.47,0,0,1,.3-1.87A4,4,0,0,1,81.27,25a3.74,3.74,0,0,1,1.36-.89,4.77,4.77,0,0,1,1.77-.31,4.84,4.84,0,0,1,1.79.31,3.7,3.7,0,0,1,1.35.89,3.88,3.88,0,0,1,.86,1.43,5.73,5.73,0,0,1,.29,1.87,5.61,5.61,0,0,1-.3,1.9,4.11,4.11,0,0,1-.86,1.45,3.77,3.77,0,0,1-1.36.92A4.77,4.77,0,0,1,84.4,32.83Zm0-1.82a1.62,1.62,0,0,0,1.45-.72,3.66,3.66,0,0,0,.48-2,3.47,3.47,0,0,0-.48-2,1.66,1.66,0,0,0-1.45-.68,1.68,1.68,0,0,0-1.46.68,3.56,3.56,0,0,0-.47,2,3.67,3.67,0,0,0,.47,2A1.62,1.62,0,0,0,84.4,31Z"/><path class="cls-1" d="M90.38,32.57V24h2.28V27.5h.39a1.08,1.08,0,0,0,.78-.28,3.3,3.3,0,0,0,.63-1.08A7,7,0,0,1,95,25.07a2.42,2.42,0,0,1,.6-.66,1.87,1.87,0,0,1,.73-.33,4.51,4.51,0,0,1,1-.09,4.85,4.85,0,0,1,.93.13L98,25.8a2.19,2.19,0,0,0-.53-.07.92.92,0,0,0-.51.12,1.09,1.09,0,0,0-.37.48l-.34.75a3.23,3.23,0,0,1-.41.69,1.47,1.47,0,0,1-.7.45,2.79,2.79,0,0,1,.64.37,3.63,3.63,0,0,1,.63.75l2,3.23H96L94.39,30c-.1-.16-.2-.31-.29-.43a1.4,1.4,0,0,0-.27-.31.92.92,0,0,0-.7-.25h-.47v3.52Z"/><path class="cls-1" d="M101.92,25.88H99.14V24h7.8v1.89h-2.75v6.69h-2.27Z"/><path class="cls-1" d="M111.94,32.83a4.1,4.1,0,0,1-3.17-1.19,4.81,4.81,0,0,1-1.12-3.39,5.24,5.24,0,0,1,.31-1.87,3.88,3.88,0,0,1,.86-1.43,3.7,3.7,0,0,1,1.35-.89,5.27,5.27,0,0,1,3.56,0,3.74,3.74,0,0,1,1.36.89,3.86,3.86,0,0,1,.85,1.43,5.47,5.47,0,0,1,.3,1.87,5.61,5.61,0,0,1-.31,1.9,4,4,0,0,1-.86,1.45,3.65,3.65,0,0,1-1.35.92A4.82,4.82,0,0,1,111.94,32.83Zm0-1.82a1.64,1.64,0,0,0,1.46-.72,3.66,3.66,0,0,0,.48-2,3.47,3.47,0,0,0-.48-2,1.68,1.68,0,0,0-1.46-.68,1.66,1.66,0,0,0-1.45.68,3.47,3.47,0,0,0-.48,2,3.75,3.75,0,0,0,.47,2A1.63,1.63,0,0,0,111.94,31Z"/><path class="cls-1" d="M117.93,24h2.22v1.14a2.22,2.22,0,0,1,.62-.68,3.86,3.86,0,0,1,.82-.48,3,3,0,0,1,1.22-.22,3.41,3.41,0,0,1,1.69.38,3.11,3.11,0,0,1,1.08,1,4.45,4.45,0,0,1,.58,1.45,8.67,8.67,0,0,1,.17,1.7,6.69,6.69,0,0,1-.22,1.69,4.7,4.7,0,0,1-.67,1.45,3.42,3.42,0,0,1-1.16,1,3.25,3.25,0,0,1-3.5-.18,2.48,2.48,0,0,1-.56-.56v4h-2.29Zm4.23,1.61a2.25,2.25,0,0,0-.79.13,1.64,1.64,0,0,0-.55.36,1.78,1.78,0,0,0-.48.8,4.55,4.55,0,0,0-.14,1.22v.26a3.26,3.26,0,0,0,.49,2.06,1.75,1.75,0,0,0,1.42.58,1.57,1.57,0,0,0,.83-.21,1.75,1.75,0,0,0,.58-.57,2.63,2.63,0,0,0,.33-.84,5.09,5.09,0,0,0,.1-1.06,3.9,3.9,0,0,0-.43-2A1.48,1.48,0,0,0,122.16,25.6Z"/><path class="cls-1" d="M131.84,21h7.41v2.08h-5v9.52h-2.42Z"/><path class="cls-1" d="M139.21,33.78a4.1,4.1,0,0,0,1,.13,1.15,1.15,0,0,0,.73-.22,1.61,1.61,0,0,0,.47-.77l.26-.72L138.11,24h2.63l2,5.68L144.58,24h2.48l-3.43,8.83c-.19.49-.38.91-.55,1.27a3.49,3.49,0,0,1-.59.91,2,2,0,0,1-.8.55,3.17,3.17,0,0,1-1.14.18,5.83,5.83,0,0,1-.84-.06,4.93,4.93,0,0,1-.87-.2Z"/><path class="cls-1" d="M155.68,22.55l-1.65.31a10.32,10.32,0,0,0-1.65.44,3.58,3.58,0,0,0-1.08.6,3.18,3.18,0,0,0-.68.84,4.14,4.14,0,0,0-.4,1.16,2.76,2.76,0,0,1,1.21-1.07,4,4,0,0,1,1.63-.33,3.88,3.88,0,0,1,1.41.25,3.13,3.13,0,0,1,1.14.76,3.54,3.54,0,0,1,.76,1.28,5.1,5.1,0,0,1,.28,1.79,4.92,4.92,0,0,1-.29,1.69,3.92,3.92,0,0,1-.85,1.35,3.88,3.88,0,0,1-1.35.89,4.59,4.59,0,0,1-1.78.32,3.9,3.9,0,0,1-3.26-1.32,6,6,0,0,1-1.05-3.83,8.62,8.62,0,0,1,.46-3,5.38,5.38,0,0,1,1.36-2.09,3.84,3.84,0,0,1,.87-.61,8.48,8.48,0,0,1,1.1-.48,11.7,11.7,0,0,1,1.19-.36q.62-.15,1.2-.24l1.17-.21Zm-3.16,3.77a3.3,3.3,0,0,0-.6.05,1.51,1.51,0,0,0-.65.27,1.64,1.64,0,0,0-.63.86,3.77,3.77,0,0,0-.16,1.11,2.92,2.92,0,0,0,.46,1.76,1.65,1.65,0,0,0,1.44.64,1.84,1.84,0,0,0,1.38-.56,2.4,2.4,0,0,0,.55-1.73,3.84,3.84,0,0,0-.15-1.16,1.86,1.86,0,0,0-.39-.74,1.42,1.42,0,0,0-.56-.39A2.26,2.26,0,0,0,152.52,26.32Z"/><path class="cls-1" d="M167.91,24h2.23v1.14a2.32,2.32,0,0,1,.61-.68,4.23,4.23,0,0,1,.83-.48,3,3,0,0,1,1.22-.22,3.44,3.44,0,0,1,1.69.38,3.11,3.11,0,0,1,1.08,1,4.23,4.23,0,0,1,.57,1.45,8,8,0,0,1,.17,1.7A6.69,6.69,0,0,1,176.1,30a4.5,4.5,0,0,1-.68,1.45,3.59,3.59,0,0,1-3.9,1.23,3.08,3.08,0,0,1-.75-.4,2.53,2.53,0,0,1-.57-.56v4h-2.29Zm4.24,1.61a2.31,2.31,0,0,0-.8.13,1.75,1.75,0,0,0-.55.36,1.85,1.85,0,0,0-.47.8,4.17,4.17,0,0,0-.14,1.22v.26a3.26,3.26,0,0,0,.49,2.06,1.75,1.75,0,0,0,1.42.58,1.57,1.57,0,0,0,.83-.21,1.73,1.73,0,0,0,.57-.57,2.43,2.43,0,0,0,.34-.84,5.09,5.09,0,0,0,.1-1.06,3.79,3.79,0,0,0-.44-2A1.47,1.47,0,0,0,172.15,25.6Z"/><path class="cls-1" d="M165.26,24.88a3.71,3.71,0,0,0-2.94-1.13,4.54,4.54,0,0,0-1.72.31,3.86,3.86,0,0,0-1.34.88,4.1,4.1,0,0,0-.87,1.43,5.43,5.43,0,0,0-.31,1.91,4.88,4.88,0,0,0,1.07,3.35,4,4,0,0,0,3.17,1.2A4.24,4.24,0,0,0,165,32.1a3.35,3.35,0,0,0,1.14-2.17h-2.21a1.41,1.41,0,0,1-1.59,1.13,1.74,1.74,0,0,1-1.46-.61,2.62,2.62,0,0,1-.52-1.63h5.88v-.91A4.47,4.47,0,0,0,165.26,24.88Zm-4.87,2.45a2.43,2.43,0,0,1,.14-.73,1.9,1.9,0,0,1,.37-.59,1.74,1.74,0,0,1,.58-.41,2.1,2.1,0,0,1,.79-.14,1.68,1.68,0,0,1,1.35.49,2.07,2.07,0,0,1,.43,1.38Z"/></g></g></svg>